<?xml version="1.0" encoding="UTF-8"?>
<svg data-bbox="0 0 1679.4 390.42" viewBox="0 0 1679.4 390.42" xmlns="http://www.w3.org/2000/svg" data-type="ugc">
    <g>
        <path fill="#ffffff" d="M1679.4 195.21c0 107.812-87.398 195.21-195.21 195.21H195.21C87.398 390.42 0 303.022 0 195.21 0 87.398 87.398 0 195.21 0h1288.98c107.812 0 195.21 87.398 195.21 195.21z" opacity=".8"/>
        <path d="M292.3 269.43c-2.08 28.99-43.16 31.23-46.47 1.21-1.47-21.82-19.18-40.96-40.87-43.95-4.1-.69-8.4.07-12.67-.31-5.16-.5-9.72-2.08-14.13-4.92l-.1-.03-1.36-.97c-.71-.53-1.34-1.05-1.96-1.58-.24-.18-.53-.44-.81-.74a28.99 28.99 0 0 1-4.07-4.57c-.22-.29-.46-.65-.69-.99l-.77-1.19c-.18-.31-.35-.6-.52-.91-.53-.88-1.02-1.93-1.5-3.02-.24-.57-.47-1.15-.66-1.74-.13-.32-.24-.65-.34-.99-.99-3.02-1.46-6.01-1.47-9.12-.03-1.21 0-2.15.13-3.31 0-.06 0-.12.02-.18l.28-2.15c.22-1.38.53-2.7.94-3.98.83-2.75 2.19-5.65 3.85-8.1.13-.21.27-.41.4-.59.12-.18.28-.4.46-.63.19-.28.38-.53.59-.77 1.5-1.94 3.29-3.74 5.33-5.33.22-.19.53-.43.85-.66.07-.04.15-.1.22-.16l.63-.44c.37-.24.74-.49 1.1-.71.38-.25.75-.47 1.13-.68 3.05-1.72 6.31-2.92 9.9-3.54.03-.01.07-.01.12-.03l2.15-.29c.15-.01.28-.03.41-.03.32-.04.65-.07.99-.07a29.2 29.2 0 0 1 2.8-.04c.15.01.29.01.43.01.48.02.93.05 1.36.09 1.06.1 2.11.23 3.15.45h.01c.74.13 1.58.32 2.39.55l.52.16c.26.07.65.18 1.05.32.44.15.96.32 1.47.53.9.34 1.97.83 3.14 1.43l1.36.77c.72.43 1.38.87 2.03 1.31l.15.09a31.495 31.495 0 0 1 12.45 18.52c1.52 5.64.13 11.33.97 16.77 3.01 21.75 22.1 39.44 43.95 40.91 12.66 1.02 22.17 11.39 21.66 23.6Z" fill="#7866e1"/>
        <path d="M228.01 287.29c0 12.18-9.92 22.1-22.1 22.1h-9.31c-63.25 0-115.09-50.83-115.57-113.31-.22-30.67 11.54-59.55 33.13-81.31 21.61-21.76 50.39-33.74 81.05-33.74h10.7c12.18 0 22.1 9.92 22.1 22.1s-9.92 22.1-22.1 22.1h-9.49c-37.95 0-69.19 29.11-71.09 66.28-1 19.4 5.79 37.83 19.14 51.87 13.35 14.06 31.37 21.8 50.74 21.8h10.7c12.18 0 22.1 9.92 22.1 22.1Z" fill="#001241"/>
        <path fill="#00fdbd" d="M309.4 195.21c0 11.19-9.07 20.26-20.26 20.26-11.19 0-20.26-9.07-20.26-20.26 0-11.19 9.07-20.26 20.26-20.26 11.19 0 20.26 9.07 20.26 20.26z"/>
        <text transform="translate(343.22 265.21)" fill="#001241" font-size="200"><tspan y="0" x="0" font-family="Montserrat-Bold,Montserrat" font-weight="700" letter-spacing="-.08em">G</tspan><tspan y="0" x="138.2" letter-spacing="-.04em" font-family="Montserrat-Bold,Montserrat" font-weight="700">L</tspan><tspan y="0" x="251" letter-spacing=".02em" font-family="Montserrat-Bold,Montserrat" font-weight="700">P</tspan><tspan y="0" x="401.4" letter-spacing="-.06em" font-family="Montserrat-Regular,Montserrat">T</tspan><tspan y="0" x="504.19" letter-spacing=".02em" font-family="Montserrat-Regular,Montserrat">R</tspan><tspan y="0" x="652.79" letter-spacing="-.06em" font-family="Montserrat-Regular,Montserrat">A</tspan><tspan y="0" x="784.19" letter-spacing="-.16em" font-family="Montserrat-Regular,Montserrat">IN</tspan><tspan y="0" x="943.19" letter-spacing="-.14em" font-family="Montserrat-Regular,Montserrat">I</tspan><tspan y="0" x="975.58" letter-spacing="-.1em" font-family="Montserrat-Regular,Montserrat">N</tspan><tspan y="0" x="1118.18" font-family="Montserrat-Regular,Montserrat">G</tspan></text>
    </g>
</svg>
